<svg xmlns="http://www.w3.org/2000/svg" width="284" height="98" viewBox="-0.207 -0.007 284 98" overflow="visible"><style>path{fill:#FFF;}</style><path d="M97.614 48.807c0 26.953-21.852 48.804-48.807 48.804C21.852 97.61 0 75.76 0 48.808 0 21.852 21.852 0 48.808 0c26.955 0 48.806 21.852 48.806 48.807zm-48.806-37.65c-20.794 0-37.65 16.856-37.65 37.65 0 20.79 16.856 37.646 37.65 37.646 20.793 0 37.65-16.856 37.65-37.647 0-20.793-16.857-37.65-37.65-37.65z"/><path d="M159.41 48.807c0 26.953-21.853 48.804-48.808 48.804S61.796 75.76 61.796 48.808C61.796 21.852 83.646 0 110.603 0s48.807 21.852 48.807 48.807zm-48.807-37.65c-20.794 0-37.65 16.856-37.65 37.65 0 20.79 16.856 37.646 37.65 37.646 20.793 0 37.65-16.856 37.65-37.647 0-20.793-16.857-37.65-37.65-37.65z"/><path d="M221.205 48.807c0 26.953-21.852 48.804-48.807 48.804-26.956 0-48.808-21.85-48.808-48.803C123.59 21.852 145.442 0 172.398 0s48.807 21.852 48.807 48.807zm-48.807-37.65c-20.794 0-37.65 16.856-37.65 37.65 0 20.79 16.856 37.646 37.65 37.646 20.793 0 37.65-16.856 37.65-37.647 0-20.793-16.857-37.65-37.65-37.65z"/><path d="M283 48.807c0 26.953-21.852 48.804-48.807 48.804s-48.807-21.85-48.807-48.803C185.386 21.852 207.238 0 234.193 0S283 21.852 283 48.807zm-48.807-37.65c-20.793 0-37.65 16.856-37.65 37.65 0 20.79 16.857 37.646 37.65 37.646s37.65-16.856 37.65-37.647c0-20.793-16.857-37.65-37.65-37.65z"/></svg>